<?xml version="1.0" encoding="utf-8"?>
<!-- Generator: Adobe Illustrator 19.0.0, SVG Export Plug-In . SVG Version: 6.00 Build 0)  -->
<svg version="1.1" id="Layer_1" xmlns="http://www.w3.org/2000/svg" xmlns:xlink="http://www.w3.org/1999/xlink" x="0px" y="0px"
	 viewBox="0 0 141.6 141.8" style="enable-background:new 0 0 141.6 141.8;" xml:space="preserve">
<path id="XMLID_39_" d="M141.8,120.8c0,2.8-1.1,5.3-2.9,7.1s-4.3,3-7.1,3h-19.1c-3.5,6-10.3,10.7-18.1,10.7
	c-7.8,0-14.6-4.7-18.1-10.7H10.3c-5.5,0-10-4.7-10-10.2c0-2.8,1.1-5.2,2.9-7c1.8-1.8,4.3-2.9,7.1-2.9h66.1
	c3.5-7,10.3-10.7,18.1-10.7c7.8,0,14.6,3.7,18.1,10.7h19.1C137.3,111,141.8,115.3,141.8,120.8z"/>
<path id="XMLID_38_" d="M141.3,70.8c0,2.8-1.1,5.3-2.9,7.1s-4.3,3-7.1,3H67.7c-3.6,6-10.2,10.2-17.8,10.2C42.3,91.2,35.6,87,32,81
	H9.8c-5.5,0-10-4.7-10-10.2c0-2.8,1.1-5.2,2.9-7C4.6,62.1,7.1,61,9.8,61h21.6c3.4-7,10.4-11.2,18.4-11.2S64.8,54,68.2,61h63
	C136.8,61,141.3,65.3,141.3,70.8z"/>
<path id="XMLID_37_" d="M141.3,20.8c0,2.8-1.1,5.3-2.9,7.1s-4.3,3-7.1,3H95.6c-3.5,6-10.3,10.7-18.1,10.7c-7.8,0-14.6-4.7-18.1-10.7
	H9.8c-5.5,0-10-4.7-10-10.2c0-2.8,1.1-5.2,2.9-7C4.6,12.1,7.1,11,9.8,11h49.6C62.9,4,69.7,0.3,77.5,0.3C85.3,0.3,92.1,4,95.6,11
	h35.6C136.8,11,141.3,15.3,141.3,20.8z"/>
</svg>
