<?xml version="1.0" encoding="utf-8"?>
<!-- Generator: Adobe Illustrator 19.0.0, SVG Export Plug-In . SVG Version: 6.00 Build 0)  -->
<svg version="1.1" id="Layer_1" xmlns="http://www.w3.org/2000/svg" xmlns:xlink="http://www.w3.org/1999/xlink" x="0px" y="0px"
	 viewBox="0 0 141.6 141.8" style="enable-background:new 0 0 141.6 141.8;" xml:space="preserve">
<circle id="XMLID_27_" cx="17.6" cy="17.7" r="17.5"/>
<circle id="XMLID_69_" cx="17.6" cy="70.9" r="17.5"/>
<circle id="XMLID_70_" cx="17.6" cy="124.1" r="17.5"/>
<path id="XMLID_74_" d="M124.6,33.9H70.1c-9.3,0-16.9-7.6-16.9-16.9v0c0-9.3,7.6-16.9,16.9-16.9l54.5,0c9.3,0,16.9,7.6,16.9,16.9v0
	C141.5,26.3,133.9,33.9,124.6,33.9z"/>
<path id="XMLID_75_" d="M124.6,87.2H70.1c-9.3,0-16.9-7.6-16.9-16.9v0c0-9.3,7.6-16.9,16.9-16.9h54.5c9.3,0,16.9,7.6,16.9,16.9v0
	C141.5,79.7,133.9,87.2,124.6,87.2z"/>
<path id="XMLID_76_" d="M124.6,141.6H70.1c-9.3,0-16.9-7.6-16.9-16.9v0c0-9.3,7.6-16.9,16.9-16.9h54.5c9.3,0,16.9,7.6,16.9,16.9v0
	C141.5,134,133.9,141.6,124.6,141.6z"/>
</svg>
